<svg width="85" height="58" viewBox="0 0 90 63" fill="none" xmlns="http://www.w3.org/2000/svg">
<path d="M40.984 36.456H42.984V34.456V28.912V26.912H40.984H27.648V13.288V11.288H25.648H19.528H17.528V13.288V26.912H4.26401H2.26401V28.912V34.456V36.456H4.26401H17.528V50.008V52.008H19.528H25.648H27.648V50.008V36.456H40.984ZM49.4742 18.8963L49.3105 21.048H51.4684H57.8764H59.6339L59.8599 19.3051C60.1382 17.1576 61.0016 15.5674 62.4047 14.3858C63.7856 13.223 65.6914 12.552 68.3164 12.552C71.0704 12.552 72.8599 13.2378 74.0017 14.3124L74.0122 14.3223L74.0229 14.3321C75.2373 15.4424 75.8924 16.9203 75.8924 18.976C75.8924 21.3535 75.0449 22.8797 73.4452 23.906C71.6418 25.0134 68.7413 25.7127 64.4895 25.76H62.7724H60.7724V27.76V33.232V35.232H62.7724H64.4284C69.1247 35.232 72.2807 36.0113 74.1988 37.2772C75.8945 38.3964 76.9004 40.2638 76.9004 43.384C76.9004 45.7006 76.1808 47.4512 74.8222 48.8098C73.592 50.04 71.6372 50.816 68.6044 50.816C65.6182 50.816 63.449 50.0145 61.8823 48.5969C60.2509 47.1209 59.2829 45.2256 58.999 42.7922L58.7927 41.024H57.0124H50.6764H48.5134L48.6826 43.1804C49.1016 48.5227 51.1255 52.8544 54.877 55.9439L54.8838 55.9495L54.8907 55.955C58.5816 58.9403 63.2311 60.36 68.6764 60.36C72.4135 60.36 75.7353 59.6946 78.5709 58.2769C81.3741 56.8752 83.5575 54.915 85.0242 52.3766L85.0289 52.3684L85.0336 52.3601C86.4645 49.8284 87.1644 47.0129 87.1644 43.96C87.1644 39.9748 86.163 36.5421 83.9837 33.8466C82.8232 32.4112 81.4426 31.2449 79.8601 30.3414C81.1229 29.5335 82.2417 28.5091 83.2068 27.2706C85.2349 24.7305 86.2284 21.7165 86.2284 18.328C86.2284 15.4462 85.518 12.8016 84.0659 10.4498C82.6422 8.06521 80.5332 6.23875 77.8437 4.94343C75.1564 3.57745 72.0297 2.936 68.5324 2.936C63.2891 2.936 58.8259 4.27861 55.3193 7.12777C51.7681 10.0131 49.8464 14.0044 49.4742 18.8963Z" stroke="white" stroke-width="4"/>
</svg>





